<?xml version="1.0" encoding="utf-8"?>
<!-- Generator: Adobe Illustrator 22.1.0, SVG Export Plug-In . SVG Version: 6.00 Build 0)  -->
<svg version="1.1" id="Layer_1" xmlns="http://www.w3.org/2000/svg" xmlns:xlink="http://www.w3.org/1999/xlink" x="0px" y="0px"
	 viewBox="0 0 145 38" style="enable-background:new 0 0 145 38;" xml:space="preserve">
<style type="text/css">
	.st0{fill:#E5E6EA;}
	.st1{fill:#292B31;}
	.st2{fill-rule:evenodd;clip-rule:evenodd;fill:#292B31;}
</style>
<g>
	<g>
		<path class="st0" d="M31.9,9.1l-0.6-0.4l-1.1,1.8c-0.1,0.2-0.4,0.3-0.7,0.2L28.2,10c-0.3,0.3-0.7,0.6-1.1,0.8l0.3,1.4
			c0.1,0.3-0.1,0.5-0.4,0.6l-2.6,0.6c-0.3,0.1-0.5-0.1-0.6-0.4l-0.3-1.4c-0.4,0-0.9-0.1-1.3-0.2l-0.8,1.2c-0.1,0.2-0.4,0.3-0.7,0.2
			l-2.3-1.4c-0.2-0.1-0.3-0.4-0.2-0.7l0.8-1.2c-0.3-0.3-0.6-0.7-0.8-1.1L17,8.8c-0.3,0.1-0.5-0.1-0.6-0.4l-0.6-2.6
			c-0.1-0.3,0.1-0.5,0.4-0.6l1.4-0.3c0-0.4,0.1-0.9,0.2-1.3l-1.2-0.8c-0.2-0.1-0.3-0.4-0.2-0.7l1-1.7l-0.6-0.3c-0.3-0.2-0.7-0.2-1,0
			l-15.3,9C0.2,9.3,0,9.6,0,10v18c0,0.3,0.2,0.7,0.5,0.8l15.3,9c0.3,0.2,0.7,0.2,1,0l15-9c0.3-0.2,0.5-0.5,0.5-0.8V10
			C32.3,9.6,32.2,9.3,31.9,9.1z"/>
		<path class="st0" d="M20.9,5.9c0.4,1.7,2.1,2.7,3.8,2.3c1.1-0.3,1.9-1.1,2.2-2.1l-5.2-3.1C21,3.8,20.7,4.9,20.9,5.9z"/>
		<path class="st1" d="M16.5,2.8l1.2,0.8c-0.1,0.4-0.2,0.9-0.2,1.3l-1.4,0.3c-0.3,0.1-0.4,0.3-0.4,0.6l0.6,2.6
			c0.1,0.3,0.3,0.4,0.6,0.4l1.4-0.3c0.2,0.4,0.5,0.7,0.8,1.1l-0.8,1.2c-0.1,0.2-0.1,0.5,0.2,0.7l2.3,1.4c0.2,0.1,0.5,0.1,0.7-0.2
			l0.8-1.2c0.4,0.1,0.9,0.2,1.3,0.2l0.3,1.4c0.1,0.3,0.3,0.4,0.6,0.4l2.6-0.6c0.3-0.1,0.4-0.3,0.4-0.6l-0.3-1.4
			c0.4-0.2,0.7-0.5,1.1-0.8l1.2,0.8c0.2,0.1,0.5,0.1,0.7-0.2l1.1-1.8l-4.3-2.6c-0.3,1-1.1,1.8-2.2,2.1c-1.7,0.4-3.4-0.6-3.8-2.3
			c-0.3-1.1,0.1-2.1,0.8-2.9l-4.3-2.6l-1,1.7C16.2,2.4,16.3,2.7,16.5,2.8z"/>
	</g>
	<path class="st2" d="M5.6,18.2c0.1,0.3,0.3,0.4,0.6,0.4l1.2-0.2c0.2,0.3,0.4,0.7,0.7,1l-0.7,1c-0.1,0.2-0.1,0.5,0.1,0.7l1.9,1.2
		c0.2,0.1,0.5,0.1,0.7-0.1l0.7-1c0.4,0.1,0.8,0.2,1.1,0.2l0.2,1.2c0.1,0.3,0.3,0.4,0.6,0.4l2.2-0.5c0.3-0.1,0.4-0.3,0.4-0.6
		l-0.2-1.2c0.3-0.2,0.7-0.4,1-0.7l1,0.7c0.2,0.1,0.5,0.1,0.7-0.1l1.2-1.9c0.1-0.2,0.1-0.5-0.1-0.7l-1-0.7c0.1-0.4,0.2-0.8,0.2-1.1
		l1.2-0.2c0.3-0.1,0.4-0.3,0.4-0.6l-0.5-2.2c-0.1-0.3-0.3-0.4-0.6-0.4L17.3,13c-0.2-0.3-0.4-0.7-0.7-1l0.7-1
		c0.1-0.2,0.1-0.5-0.1-0.7l-1.9-1.2C15,8.9,14.7,9,14.6,9.2l-0.7,1c-0.4-0.1-0.8-0.2-1.1-0.2l-0.2-1.2c-0.1-0.3-0.3-0.4-0.6-0.4
		L9.8,9C9.5,9,9.3,9.3,9.4,9.5l0.2,1.2c-0.3,0.2-0.7,0.4-1,0.7l-1-0.7c-0.2-0.1-0.5-0.1-0.7,0.1l-1.2,1.9c-0.1,0.2-0.1,0.5,0.1,0.7
		l1,0.7c-0.1,0.4-0.2,0.8-0.2,1.1l-1.2,0.2c-0.3,0.1-0.4,0.3-0.4,0.6L5.6,18.2z M11.8,13c1.5-0.3,2.9,0.6,3.3,2.1s-0.6,2.9-2.1,3.3
		c-1.5,0.3-2.9-0.6-3.3-2.1C9.3,14.8,10.3,13.3,11.8,13z"/>
	<path class="st2" d="M16,26.9l0.6-0.1c0.1,0.2,0.2,0.5,0.4,0.7l-0.4,0.5c-0.2,0.2-0.1,0.5,0.1,0.7l0.9,0.7c0.2,0.2,0.5,0.1,0.7-0.1
		l0.4-0.5c0.2,0.1,0.5,0.2,0.7,0.2l0.1,0.6c0,0.3,0.3,0.5,0.6,0.4l1.1-0.2c0.3,0,0.5-0.3,0.4-0.6l-0.1-0.6c0.2-0.1,0.5-0.2,0.7-0.4
		l0.5,0.4c0.2,0.2,0.5,0.1,0.7-0.1l0.7-0.9c0.2-0.2,0.1-0.5-0.1-0.7l-0.5-0.4c0.1-0.2,0.2-0.5,0.2-0.7l0.6-0.1
		c0.3,0,0.5-0.3,0.4-0.6L24.5,24c0-0.3-0.3-0.5-0.6-0.4l-0.6,0.1c-0.1-0.2-0.2-0.5-0.4-0.7l0.4-0.5c0.2-0.2,0.1-0.5-0.1-0.7
		l-0.9-0.7c-0.2-0.2-0.5-0.1-0.7,0.1l-0.4,0.5c-0.2-0.1-0.5-0.2-0.7-0.2L20.4,21c0-0.3-0.3-0.5-0.6-0.4l-1.1,0.2
		c-0.3,0-0.5,0.3-0.4,0.6l0.1,0.6c-0.2,0.1-0.5,0.2-0.7,0.4l-0.5-0.4c-0.2-0.2-0.5-0.1-0.7,0.1l-0.7,0.9c-0.2,0.2-0.1,0.5,0.1,0.7
		l0.5,0.4c-0.1,0.2-0.2,0.5-0.2,0.7l-0.6,0.1c-0.3,0-0.5,0.3-0.4,0.6l0.2,1.1C15.5,26.7,15.7,26.9,16,26.9z M19.7,23.5
		c1-0.1,1.9,0.5,2,1.5c0.1,1-0.5,1.9-1.5,2c-1,0.1-1.9-0.5-2-1.5C18,24.5,18.7,23.6,19.7,23.5z"/>
</g>
<g>
	<path class="st0" d="M75.9,24.5v-4.7c0-1.7-0.3-2.9-0.9-3.7c-0.6-0.7-1.7-1.1-3.3-1.1c-1.2,0-2.5,0.3-3.9,0.8l-0.3,0.1l0.5,1.7
		l0.3-0.1c1.3-0.5,2.5-0.7,3.5-0.7c0.9,0,1.5,0.2,1.8,0.6c0.2,0.3,0.4,0.9,0.4,2.3c-0.8-0.1-1.7-0.1-2.7-0.1c-1.2,0-2.2,0.3-2.9,0.9
		c-0.8,0.6-1.1,1.5-1.1,2.6c0,1.1,0.4,2,1,2.6c0.7,0.6,1.6,0.9,2.8,0.9c0.6,0,1.3-0.2,1.9-0.5c0.4-0.2,0.8-0.4,1.1-0.6l0.2,1.1
		l1.7-0.2L75.9,24.5z M74.1,23.5c-0.3,0.3-0.7,0.5-1.3,0.8c-0.6,0.3-1.2,0.5-1.7,0.5c-1.4,0-2-0.6-2-1.9c0-0.6,0.2-1,0.6-1.3
		c0.4-0.3,1-0.5,1.8-0.5c0.8,0,1.7,0,2.5,0.1V23.5z"/>
	<path class="st0" d="M64.6,20.3c0-1.6-0.4-2.8-1.1-3.8c-0.7-1-1.8-1.5-3.3-1.5s-2.6,0.5-3.4,1.6c-0.7,1-1.1,2.4-1.1,4.2
		c0,1.8,0.4,3.2,1.2,4.3c0.8,1.1,2,1.6,3.6,1.6c1.1,0,2.3-0.2,3.5-0.7l0.3-0.1l-0.5-1.7l-0.3,0.1c-1.2,0.4-2.3,0.6-3.2,0.6
		c-0.8,0-1.5-0.3-1.9-0.9c-0.4-0.6-0.7-1.3-0.8-2.3h6.9L64.6,20.3z M57.7,20c0.2-2.2,1-3.2,2.7-3.2c1.5,0,2.3,1.1,2.4,3.2H57.7z"/>
	<path class="st0" d="M109,15c-3.1,0-4.6,2-4.6,5.8s1.5,5.8,4.6,5.8c3.1,0,4.6-2,4.6-5.8S112.1,15,109,15z M109,24.9
		c-1.8,0-2.7-1.3-2.7-4.1c0-2.7,0.9-4.1,2.7-4.1c1.8,0,2.7,1.3,2.7,4.1C111.8,23.6,110.9,24.9,109,24.9z"/>
	<path class="st0" d="M51.4,17.9h-5.8v-6.9h-1.8v15.4h1.8v-6.8h5.8v6.8h1.8V11.1h-1.8V17.9z"/>
	<path class="st0" d="M123.1,14.8c-0.7,0.1-1.5,0.2-2.4,0.6c-0.7,0.2-1.2,0.5-1.7,0.7l0-1.1h-2.7v1.9h0.9v9.4h1.8v-8.4
		c0.4-0.2,1-0.5,1.8-0.7c0.9-0.2,1.6-0.4,2.2-0.4h0.5v-1.9L123.1,14.8z"/>
	<path class="st0" d="M87.9,24.3V10.9h-1.8v4.6c-0.8-0.3-1.6-0.5-2.4-0.5c-1.5,0-2.7,0.5-3.6,1.6c-0.9,1-1.3,2.5-1.3,4.2
		c0,1.8,0.4,3.2,1.2,4.2c0.8,1.1,1.9,1.6,3.4,1.6c0.9,0,1.9-0.3,2.9-1l0.2,1l1.7-0.2L87.9,24.3z M86.2,23.8
		c-0.9,0.7-1.8,1.1-2.7,1.1c-0.9,0-1.5-0.4-2-1.1c-0.5-0.8-0.7-1.8-0.7-3c0-1.2,0.3-2.2,0.8-3c0.5-0.7,1.3-1,2.3-1
		c0.3,0,0.7,0.1,1.3,0.2c0.4,0.1,0.8,0.2,1.1,0.3V23.8z"/>
	<path class="st0" d="M144.2,20.8c-0.5-0.5-1.4-0.9-2.6-1.2c-1.1-0.3-1.8-0.5-2.2-0.8c-0.3-0.2-0.5-0.5-0.5-1c0-0.4,0.2-0.7,0.5-1
		c0.4-0.2,1-0.4,1.7-0.4c0.7,0,1.8,0.2,3,0.6l0.3,0.1l0.5-1.6l-0.3-0.1c-2.6-1-5-1-6.4,0c-0.8,0.5-1.2,1.3-1.2,2.3
		c0,1,0.3,1.8,0.9,2.3c0.6,0.5,1.5,0.9,2.6,1.2c1.3,0.3,1.9,0.6,2.1,0.7c0.3,0.2,0.4,0.6,0.4,1.1s-0.2,0.9-0.6,1.2
		c-0.4,0.3-1,0.5-1.7,0.5c-0.8,0-1.9-0.2-3.4-0.7l-0.3-0.1l-0.4,1.7l0.3,0.1c1.4,0.5,2.8,0.7,4,0.7c1.2,0,2.2-0.3,2.9-0.9
		c0.7-0.6,1.1-1.4,1.1-2.5C145,22.1,144.7,21.3,144.2,20.8z"/>
	<path class="st0" d="M130.9,20.5c1.1-1.3,2.2-3,3.3-5l0.2-0.4h-2L132,16c-0.9,1.4-1.7,2.7-2.6,3.8l-1.5,0.2v-9.1h-1.8v15.6h1.8
		v-4.8l1.6-0.2c1,1.4,2.1,3,3,4.8l0.1,0.2h2.1l-0.7-1.3C133,23.4,131.9,21.8,130.9,20.5z"/>
	<path class="st0" d="M100.4,11.1l-1.4,13.1l-1.7-6.5h-1.6l-1.8,6.5l-1.4-13h-1.9l1.7,15.4h2.7l1.5-5.6l1.4,5.6h2.8l1.7-15.4H100.4z
		"/>
</g>
</svg>
